# This file uses centimeters as units for non-parametric coordinates.

mtllib BB_logo.mtl
g default
v 0.000003 -0.096700 -14.317883
v -12.399649 -0.096700 -7.158944
v -12.399651 -0.096700 7.158939
v -0.000002 -0.096700 14.317883
v 12.399650 -0.096700 7.158942
v 12.399650 -0.096700 -7.158941
v 0.000003 0.096700 -14.317883
v -12.399649 0.096700 -7.158944
v -12.399651 0.096700 7.158939
v -0.000002 0.096700 14.317883
v 12.399650 0.096700 7.158942
v 12.399650 0.096700 -7.158941
v -0.223637 -0.096700 -0.237312
v 0.058436 0.096700 0.945776
vt 0.500000 0.313645
vt 0.635316 0.234947
vt 0.635316 0.077553
vt 0.500000 -0.001145
vt 0.364684 0.077553
vt 0.364684 0.234947
vt 0.375000 0.312500
vt 0.416667 0.312500
vt 0.458333 0.312500
vt 0.500000 0.312500
vt 0.541667 0.312500
vt 0.583333 0.312500
vt 0.625000 0.312500
vt 0.375000 0.688440
vt 0.416667 0.688440
vt 0.458333 0.688440
vt 0.500000 0.688440
vt 0.541667 0.688440
vt 0.583333 0.688440
vt 0.625000 0.688440
vt 0.635316 0.765625
vt 0.500000 0.687500
vt 0.364684 0.765625
vt 0.364684 0.921875
vt 0.500000 1.000000
vt 0.635316 0.921875
vt 0.503125 0.157802
vt 0.503125 0.835097
vn -0.500000 0.000000 -0.866026
vn -0.500000 0.000000 -0.866026
vn -0.500000 0.000000 -0.866026
vn -0.500000 0.000000 -0.866026
vn -1.000000 0.000000 -0.000000
vn -1.000000 0.000000 -0.000000
vn -1.000000 0.000000 -0.000000
vn -1.000000 0.000000 -0.000000
vn -0.500000 -0.000001 0.866025
vn -0.500000 -0.000001 0.866025
vn -0.500000 -0.000001 0.866025
vn -0.500000 -0.000001 0.866025
vn 0.500000 0.000000 0.866025
vn 0.500000 0.000000 0.866025
vn 0.500000 0.000000 0.866025
vn 0.500000 0.000000 0.866025
vn 1.000000 0.000000 0.000000
vn 1.000000 0.000000 0.000000
vn 1.000000 0.000000 0.000000
vn 1.000000 0.000000 0.000000
vn 0.500000 0.000001 -0.866025
vn 0.500000 0.000001 -0.866025
vn 0.500000 0.000001 -0.866025
vn 0.500000 0.000001 -0.866025
vn -0.000000 -1.000000 -0.000000
vn 0.000000 -1.000000 0.000000
vn -0.000000 -1.000000 -0.000000
vn -0.000000 -1.000000 -0.000000
vn -0.000000 -1.000000 -0.000000
vn -0.000000 -1.000000 -0.000000
vn 0.000000 -1.000000 0.000000
vn -0.000000 -1.000000 -0.000000
vn -0.000000 -1.000000 -0.000000
vn 0.000000 -1.000000 0.000000
vn 0.000000 -1.000000 0.000000
vn -0.000000 -1.000000 -0.000000
vn 0.000000 -1.000000 0.000000
vn 0.000000 -1.000000 0.000000
vn -0.000000 -1.000000 -0.000000
vn 0.000000 -1.000000 0.000000
vn 0.000000 -1.000000 0.000000
vn -0.000000 -1.000000 -0.000000
vn 0.000000 1.000000 0.000000
vn 0.000000 1.000000 0.000000
vn 0.000000 1.000000 0.000000
vn 0.000000 1.000000 0.000000
vn -0.000000 1.000000 -0.000000
vn 0.000000 1.000000 0.000000
vn -0.000000 1.000000 -0.000000
vn -0.000000 1.000000 -0.000000
vn 0.000000 1.000000 0.000000
vn -0.000000 1.000000 -0.000000
vn -0.000000 1.000000 -0.000000
vn 0.000000 1.000000 0.000000
vn -0.000000 1.000000 -0.000000
vn 0.000000 1.000000 0.000000
vn 0.000000 1.000000 0.000000
vn 0.000000 1.000000 0.000000
vn 0.000000 1.000000 0.000000
vn 0.000000 1.000000 0.000000
s off
g pCylinder1
usemtl phong1SG
f 1/7/1 2/8/2 8/15/3 7/14/4
f 2/8/5 3/9/6 9/16/7 8/15/8
f 3/9/9 4/10/10 10/17/11 9/16/12
f 4/10/13 5/11/14 11/18/15 10/17/16
f 5/11/17 6/12/18 12/19/19 11/18/20
f 6/12/21 1/13/22 7/20/23 12/19/24
f 2/2/25 1/1/26 13/27/27
f 3/3/28 2/2/29 13/27/30
f 4/4/31 3/3/32 13/27/33
f 5/5/34 4/4/35 13/27/36
f 6/6/37 5/5/38 13/27/39
f 1/1/40 6/6/41 13/27/42
f 7/25/43 8/24/44 14/28/45
f 8/24/46 9/23/47 14/28/48
f 9/23/49 10/22/50 14/28/51
f 10/22/52 11/21/53 14/28/54
f 11/21/55 12/26/56 14/28/57
f 12/26/58 7/25/59 14/28/60
